<svg xmlns="http://www.w3.org/2000/svg" width="100" height="100" viewBox="0 0 100 100">
  <g id="Grupo_8" data-name="Grupo 8" transform="translate(316 -271)">
    <g id="Grupo_5" data-name="Grupo 5" transform="translate(23.002 202.765)">
      <g id="Grupo_4" data-name="Grupo 4" transform="translate(-329.002 97.235)">
        <g id="Grupo_1" data-name="Grupo 1" transform="translate(0)">
          <path id="Caminho_1" data-name="Caminho 1" d="M160.883,247.733a55.293,55.293,0,0,1-9.744,9.237A57.823,57.823,0,0,1,132.152,267c-9.738,2.881-19.179,1.844-28.351-2.27a67.093,67.093,0,0,1-21.089-15.15c-.515-.538-.979-1.126-1.715-1.979,2.845-2.629,5.516-5.341,8.438-7.75,7.1-5.852,14.97-10.266,24.088-12.142s17.785-.233,26.069,3.729a67.488,67.488,0,0,1,20.671,15.493C160.478,247.163,160.655,247.435,160.883,247.733ZM121.115,262.25a14.465,14.465,0,1,0-14.588-14.369A14.567,14.567,0,0,0,121.115,262.25Zm32.139-14.42c-2.93-3.468-12.6-10.29-15.307-10.82,4.164,7.2,4.152,14.431-.1,21.788C142.277,256.873,149.522,251.692,153.254,247.83Zm-64.53-.043A59.472,59.472,0,0,0,104.1,258.622a21.369,21.369,0,0,1-3.036-10.945,20.864,20.864,0,0,1,3.34-11.058A65.8,65.8,0,0,0,88.724,247.787Z" transform="translate(-80.997 -226.93)"/>
          <path id="Caminho_2" data-name="Caminho 2" d="M161.736,253.3l-5.544,6.5h8.553c.924,3.324-1.888,7.995-5.624,9.566a9.8,9.8,0,0,1-12.132-3.82A9.673,9.673,0,0,1,161.736,253.3Z" transform="translate(-115.219 -239.571)"/>
        </g>
      </g>
    </g>
    <rect id="Retângulo_1" data-name="Retângulo 1" width="100" height="100" transform="translate(-316 271)" fill="none"/>
  </g>
</svg>
