<svg xmlns="http://www.w3.org/2000/svg" width="100" height="100" viewBox="0 0 100 100">
  <g id="Grupo_10" data-name="Grupo 10" transform="translate(334 88)">
    <g id="Grupo_7" data-name="Grupo 7" transform="translate(10.002 0.192)">
      <path id="Caminho_3" data-name="Caminho 3" d="M150,212.985a26.526,26.526,0,0,1-20.23,25.574,25.8,25.8,0,0,1-17.184-1.654,1.266,1.266,0,0,0-1.7.3q-7.794,7.825-15.641,15.6a8,8,0,0,1-7.938,2.319,8.155,8.155,0,0,1-3.86-13.711q7.727-7.8,15.558-15.5a1.672,1.672,0,0,0,.429-2.3c-5.639-12.082-.639-26.9,11.234-33.466a26.386,26.386,0,0,1,38.661,17.687C149.676,209.523,149.781,211.266,150,212.985Zm-26.533-20.86a20.97,20.97,0,0,0-.206,41.939c11.668.038,21.29-9.376,21.267-20.743A21.014,21.014,0,0,0,123.466,192.125ZM94.606,237.9l3.841,3.941,8.305-8.188-3.947-3.989Zm-4.165,3.759c-1.051,1.119-2.009,2.139-2.968,3.158-.113.12-.234.232-.343.355a2.913,2.913,0,0,0-.085,3.926,2.809,2.809,0,0,0,4,.344c1.237-1.126,2.279-2.466,3.383-3.687Z" transform="translate(-410 -259)"/>
      <path id="Caminho_4" data-name="Caminho 4" d="M167.224,208.87a2.546,2.546,0,0,1-2.111,2.545c-.888.178-1.8.2-2.7.336a13.571,13.571,0,0,0-7.606,4.1c-1.238,1.212-2.511,1.282-3.636.319-1.3-1.115-1.355-2.632-.065-4.014a18.138,18.138,0,0,1,11.378-5.713,16.247,16.247,0,0,1,1.976-.165A2.661,2.661,0,0,1,167.224,208.87Z" transform="translate(-451.104 -270.571)"/>
    </g>
    <rect id="Retângulo_4" data-name="Retângulo 4" width="100" height="100" transform="translate(-334 -88)" fill="none"/>
  </g>
</svg>
