<svg xmlns="http://www.w3.org/2000/svg" width="100" height="100" viewBox="0 0 100 100">
  <g id="Grupo_9" data-name="Grupo 9" transform="translate(131 -73)">
    <rect id="Retângulo_3" data-name="Retângulo 3" width="100" height="100" transform="translate(-131 73)" fill="none"/>
    <g id="Grupo_6" data-name="Grupo 6" transform="translate(-197.093 220.563)">
      <path id="Caminho_5" data-name="Caminho 5" d="M117.459,237.814c-.612,1.045-1.232,2.085-1.832,3.136a7.993,7.993,0,0,1-7.537,4.422c-10.1-.411-23.761-7.133-26.578-21.177-1.367-6.815.12-13.308,2.922-19.493a27.529,27.529,0,0,1,17.949-15.55c13.321-3.923,26.657-3.781,39.7,1.29,6.545,2.545,11.827,6.757,14.779,13.366,2.506,5.608,2.387,11.394.9,17.23-.48,1.889-.319,2.3,1.363,3.272,2.417,1.4,2.67,2.616.96,4.872a22.835,22.835,0,0,1-2.013,2.373c-.73.73-1.572,1.349-2.471,2.106.7.437,1.041.651,1.383.863,3.137,1.946,3.524,5.478.966,8.163a3.084,3.084,0,0,0-.635,1.72c-.348,3.265-.621,6.537-.937,9.806-.139,1.436-.382,2.864-.466,4.3-.331,5.651-4.806,9.084-10.267,7.631-4.962-1.321-9.856-2.9-14.787-4.343-1.123-.329-2.281-.538-3.41-.849-4.03-1.111-6.1-3.823-6.526-7.976-.387-3.76-1-7.5-1.661-11.227a24.2,24.2,0,0,0-1.387-3.9Zm37.5-10.079c-2.966-3.875-3-4.079-1.9-8.7,1.066-4.5,1.141-8.953-.832-13.252-2.487-5.418-6.942-8.691-12.3-10.789-10.592-4.145-21.488-4.3-32.487-2.037-6.029,1.239-11.338,3.867-15.335,8.727-3.562,4.331-5.131,9.435-5.856,14.9a18.764,18.764,0,0,0,4.712,15.533c4.465,5.081,10.306,7.44,16.844,8.3a3.336,3.336,0,0,0,3.443-1.922,37.606,37.606,0,0,1,2.181-3.576,8.489,8.489,0,0,1,8.2-3.713c3.751.349,7.131,1.853,10.588,3.15,2.622.984,5.247,1.882,8.155,1.266a2.47,2.47,0,1,1,.9,4.852c-1.392.278-2.826.342-4.445.523.585,1.379-.754,3.162,1,4.471.949-1.2,2.018-1.61,3.242-1.076,1.408.615,1.691,1.868,1.471,3.294.349.142.634.269.927.374.331.119.669.217.979.316,1.137-1.579,1.995-2.072,3.079-1.812,1.3.314,1.911,1.195,2.116,3.16l2.3.3c.3-2.272.858-4.381-.1-6.51a2.341,2.341,0,0,1,.723-2.812c.614-.584,1.26-1.134,1.841-1.655-1.332-1-2.7-1.884-3.891-2.957-1.617-1.454-1.505-2.926.106-4.368C152.09,230.408,153.527,229.056,154.962,227.735Zm-32.243,8.472c.4,1.089.687,1.827.941,2.576,1.544,4.574,1.89,9.35,2.383,14.1.2,1.885,1.013,2.742,2.873,3.258,3.167.879,6.323,1.8,9.481,2.7,2.813.809,5.611,1.678,8.441,2.425,1.951.515,3.492-.178,3.826-1.762a38.514,38.514,0,0,0,.449-4.319c-.236-.135-.309-.208-.39-.219-.845-.113-1.691-.216-2.524-.321-1.191,1.921-2.137,2.456-3.515,2-1.266-.415-1.789-1.455-1.646-3.357a8.728,8.728,0,0,0-2.235-.809c-.439-.04-.917.585-1.41.849a2.433,2.433,0,0,1-3.659-2.263c.009-.347.062-.692.092-1.012-.624-.362-1.151-.719-1.719-.987a3.742,3.742,0,0,1-2.283-4.04c.106-1.482-.012-2.978.035-4.466a1.179,1.179,0,0,0-.911-1.388c-1.282-.42-2.516-.985-3.785-1.447C125.787,237.235,124.394,236.781,122.719,236.207Z" transform="translate(-5 -324.041)"/>
      <path id="Caminho_6" data-name="Caminho 6" d="M212.7,260.736c.051,3.558-3.11,8.351-6.305,9.558-3.018,1.14-5.741-.787-5.417-4a11.211,11.211,0,0,1,5.373-8.773C209.466,255.591,212.65,257.255,212.7,260.736Z" transform="translate(-68.396 -361.197)"/>
    </g>
  </g>
</svg>
